<?xml version="1.0" encoding="UTF-8" standalone="no"?>
<!-- Created with Inkscape (http://www.inkscape.org/) -->

<svg
   width="351.3533mm"
   height="44.123074mm"
   viewBox="0 0 351.35329 44.123074"
   version="1.1"
   id="svg5"
   inkscape:version="1.1.2 (b8e25be833, 2022-02-05)"
   sodipodi:docname="dibujo.svg"
   xmlns:inkscape="http://www.inkscape.org/namespaces/inkscape"
   xmlns:sodipodi="http://sodipodi.sourceforge.net/DTD/sodipodi-0.dtd"
   xmlns="http://www.w3.org/2000/svg"
   xmlns:svg="http://www.w3.org/2000/svg">
  <sodipodi:namedview
     id="namedview7"
     pagecolor="#ffffff"
     bordercolor="#666666"
     borderopacity="1.0"
     inkscape:pageshadow="2"
     inkscape:pageopacity="0.0"
     inkscape:pagecheckerboard="0"
     inkscape:document-units="mm"
     showgrid="false"
     inkscape:zoom="0.7198092"
     inkscape:cx="574.45778"
     inkscape:cy="268.82124"
     inkscape:window-width="1920"
     inkscape:window-height="1001"
     inkscape:window-x="-9"
     inkscape:window-y="-9"
     inkscape:window-maximized="1"
     inkscape:current-layer="g11983"
     width="211mm"
     units="mm"
     fit-margin-top="0"
     fit-margin-left="0"
     fit-margin-right="0"
     fit-margin-bottom="0" />
  <defs
     id="defs2">
    <rect
       x="-548.75653"
       y="177.82491"
       width="857.17157"
       height="176.43564"
       id="rect2211" />
    <radialGradient
       cx="15.193973"
       cy="7.0621719"
       fx="15.193973"
       fy="7.0621719"
       r="21.607857"
       gradientTransform="matrix(1.0548969,0,0,0.98475894,262.30154,3.3340121)"
       id="tomtom-logo_svg__a"
       gradientUnits="userSpaceOnUse">
      <stop
         stop-color="#FFF"
         offset="4%"
         id="stop2" />
      <stop
         stop-color="#FDFDFD"
         stop-opacity="0.74"
         offset="39.77%"
         id="stop4" />
      <stop
         stop-color="#F6F6F6"
         stop-opacity="0.65"
         offset="52.66%"
         id="stop6" />
      <stop
         stop-color="#EBEBEB"
         stop-opacity="0.58"
         offset="61.85%"
         id="stop8" />
      <stop
         stop-color="#DADADA"
         stop-opacity="0.52"
         offset="69.28%"
         id="stop10" />
      <stop
         stop-color="#C4C4C4"
         stop-opacity="0.48"
         offset="75.64%"
         id="stop12" />
      <stop
         stop-color="#A8A8A8"
         stop-opacity="0.44"
         offset="81.28%"
         id="stop14" />
      <stop
         stop-color="#888"
         stop-opacity="0.4"
         offset="86.38%"
         id="stop16" />
      <stop
         stop-color="#626262"
         stop-opacity="0.37"
         offset="91.06%"
         id="stop18" />
      <stop
         stop-color="#373737"
         stop-opacity="0.33"
         offset="95.42%"
         id="stop20" />
      <stop
         stop-color="#090909"
         stop-opacity="0.31"
         offset="99.29%"
         id="stop22" />
      <stop
         stop-opacity="0.3"
         offset="100%"
         id="stop24" />
    </radialGradient>
  </defs>
  <g
     inkscape:label="Capa 1"
     inkscape:groupmode="layer"
     id="layer1"
     transform="translate(27.651368,-48.328933)">
    <g
       id="g47"
       style="fill:none;fill-rule:evenodd"
       transform="matrix(1.8266059,0,0,2.0947467,-264.1549,78.984293)"
       inkscape:export-filename="G:\Users\suitedoalex\sites\tomtom-logo-4.png"
       inkscape:export-xdpi="11.6564"
       inkscape:export-ydpi="11.6564">
      <g
         id="g11983"
         transform="translate(-6.4394713,-9.1246648)">
        <g
           id="g37"
           style="fill:#000000"
           transform="matrix(1.0602981,0,0,1,-7.7131679,55.098936)">
          <path
             d="M 15.32,3.3 H 0.87 C 0.32,3.3 0,4.32 0,5.34 0,6.36 0.32,7.4 0.87,7.4 h 5.05 v 11.47 c 0,0.55 1.03,0.86 2.13,0.86 1.1,0 2.21,-0.23 2.21,-0.86 V 7.46 h 5.06 c 0.63,0 0.86,-1.02 0.86,-2.04 0,-1.02 -0.23,-2.12 -0.86,-2.12 z"
             id="path29"
             inkscape:connector-curvature="0" />
          <path
             d="m 16.97,11.47 a 8.46,8.46 0 0 1 8.6,-8.33 c 4.75,0 8.61,3.7 8.61,8.33 0,4.64 -3.79,8.33 -8.6,8.33 a 8.46,8.46 0 0 1 -8.6,-8.33 z m 8.6,4.17 a 4.29,4.29 0 0 0 4.35,-4.17 c 0,-2.28 -1.9,-4.16 -4.34,-4.16 a 4.24,4.24 0 0 0 -4.34,4.16 c 0,2.28 1.9,4.17 4.34,4.17 z"
             id="path31"
             inkscape:connector-curvature="0"
             style="fill-rule:nonzero" />
          <path
             d="m 61.66,10.21 c 0,-3.92 -3.32,-7.07 -7.34,-7.07 -2.06,0 -3.87,0.79 -5.21,2.12 A 7.63,7.63 0 0 0 43.89,3.14 c -4.02,0 -7.34,3.15 -7.34,7.07 v 8.65 c 0,0.55 1.03,0.86 2.13,0.86 1.03,0 2.14,-0.31 2.14,-0.86 V 10.2 a 3.01,3.01 0 0 1 3.07,-2.98 3.06,3.06 0 0 1 3.08,2.98 v 8.65 c 0,0.55 1.03,0.86 2.14,0.86 1.02,0 2.13,-0.31 2.13,-0.86 V 10.2 a 3.01,3.01 0 0 1 3.08,-2.98 3.06,3.06 0 0 1 3.07,2.98 v 8.65 c 0,0.55 1.03,0.86 2.14,0.86 1.02,0 2.13,-0.31 2.13,-0.86 V 10.2 Z m 62.92,0 c 0,-3.92 -3.32,-7.07 -7.34,-7.07 -2.06,0 -3.87,0.79 -5.21,2.12 a 7.63,7.63 0 0 0 -5.21,-2.12 c -4.03,0 -7.35,3.15 -7.35,7.07 v 8.65 c 0,0.55 1.03,0.86 2.14,0.86 1.02,0 2.13,-0.31 2.13,-0.86 V 10.2 a 3.01,3.01 0 0 1 3.08,-2.98 3.06,3.06 0 0 1 3.07,2.98 v 8.65 c 0,0.55 1.03,0.86 2.14,0.86 1.1,0 2.13,-0.31 2.13,-0.86 V 10.2 a 3.01,3.01 0 0 1 3.08,-2.98 3.06,3.06 0 0 1 3.08,2.98 v 8.65 c 0,0.55 1.02,0.86 2.13,0.86 1.02,0 2.13,-0.31 2.13,-0.86 V 10.2 Z M 78.32,3.3 H 63.87 C 63.24,3.3 63,4.32 63,5.34 c 0,1.02 0.32,2.05 0.87,2.05 h 5.05 v 11.47 c 0,0.55 1.03,0.86 2.13,0.86 1.03,0 2.13,-0.31 2.13,-0.86 V 7.46 h 5.06 c 0.63,0 0.87,-1.02 0.87,-2.04 0.07,-1.1 -0.24,-2.12 -0.8,-2.12 z"
             id="path33"
             inkscape:connector-curvature="0" />
          <path
             d="m 79.97,11.47 a 8.46,8.46 0 0 1 8.6,-8.33 c 4.75,0 8.61,3.7 8.61,8.33 0,4.64 -3.79,8.33 -8.6,8.33 a 8.46,8.46 0 0 1 -8.6,-8.33 z m 8.53,4.17 a 4.29,4.29 0 0 0 4.34,-4.17 c 0,-2.28 -1.9,-4.16 -4.34,-4.16 a 4.29,4.29 0 0 0 -4.34,4.16 4.29,4.29 0 0 0 4.34,4.17 z"
             id="path35"
             inkscape:connector-curvature="0"
             style="fill-rule:nonzero" />
        </g>
        <g
           id="g37236"
           transform="translate(83.31066,1.2283203)">
          <text
             xml:space="preserve"
             transform="matrix(0.63238594,0.00105719,-0.00109864,0.60852926,399.51241,-115.56521)"
             id="text2209"
             style="font-style:normal;font-variant:normal;font-weight:bold;font-stretch:normal;font-size:32.2866px;line-height:1.25;font-family:Noway;-inkscape-font-specification:'Noway, Bold';font-variant-ligatures:normal;font-variant-caps:normal;font-variant-numeric:normal;font-variant-east-asian:normal;white-space:pre;shape-inside:url(#rect2211);fill:#000000;fill-opacity:1;stroke:none"><tspan
               x="-548.75586"
               y="207.42027"
               id="tspan37310">Strategic Analysis</tspan></text>
          <g
             id="g37227"
             transform="translate(-40.850396,-10.528459)">
            <path
               d="m 271.98334,4.0340121 c -6.07709,1.2 -10.01422,6.8499999 -8.69492,12.4999999 1.30891,5.66 7.29251,9.27 13.36961,8.1 6.0667,-1.19 10.00383,-6.84 8.68453,-12.5 -1.22581,-5.6599999 -7.20941,-9.3499999 -13.35922,-8.0999999"
               id="path39"
               inkscape:connector-curvature="0"
               style="fill:url(#tomtom-logo_svg__a);stroke-width:1.01923" />
            <g
               id="g45"
               style="fill:#df1b12"
               transform="translate(135.8326,3.3340121)">
              <path
                 d="m 141.55,15.64 a 1.08,1.08 0 0 0 -1.34,0.07 l -0.08,0.08 c -0.7,0.63 -2.05,1.81 -3,1.57 -0.7,-0.15 -0.87,-0.86 -0.79,-1.49 0,-0.16 0,-0.31 0.08,-0.47 0,-0.08 0,-0.24 0.08,-0.4 0.08,-0.46 0.87,-3.84 1.26,-5.57 0.08,-0.24 0.08,-0.55 0.08,-0.79 -0.08,-0.39 -0.31,-0.47 -0.79,-0.63 -0.47,-0.07 -1.18,0.08 -1.34,0.63 -0.24,0.63 -0.4,1.5 -0.95,4.09 0,0.08 -0.08,0.23 -0.08,0.4 -0.07,0.3 -0.15,0.54 -0.55,0.46 -0.31,-0.08 -0.4,-0.47 -0.4,-0.78 V 12.1 c -0.07,-0.94 -0.07,-2.04 0,-3.14 l 0.09,-0.63 0.07,-1.1 c 0,-0.32 0,-0.47 -0.15,-0.63 a 0.984,0.984 0 0 0 -0.71,-0.08 c -0.24,0.08 -0.48,0.16 -0.64,0.32 a 0.89,0.89 0 0 0 -0.23,0.62 c -0.08,0.55 -0.08,1.18 -0.08,1.73 a 25.26,25.26 0 0 0 0,3.46 v 0.24 c 0,0.55 -0.08,0.78 -0.4,0.78 -0.31,0 -0.47,-0.31 -0.55,-0.55 v -0.16 c -0.16,-0.62 -0.24,-1.33 -0.31,-2.04 l -0.08,-0.4 c -0.08,-0.7 -0.24,-1.1 -0.24,-1.72 0,-0.08 -0.08,-0.31 -0.24,-0.4 -0.08,0 -0.23,-0.07 -0.47,0.09 -0.63,0.31 -0.55,1.02 -0.55,1.02 0,0.55 0.08,1.1 0.08,1.65 0.15,1.18 0.31,1.96 0.47,2.9 v 0.08 c 0.08,0.32 0,0.47 -0.08,0.55 -0.08,0.08 -0.16,0.08 -0.32,0 -0.23,-0.08 -0.39,-0.39 -0.47,-0.63 -0.31,-0.7 -0.55,-1.49 -0.79,-2.27 v -0.08 c 0,0 -0.08,-0.16 -0.16,-0.16 -0.08,0 -0.23,0 -0.4,0.24 -0.3,0.31 -0.07,1.17 0,1.57 0.48,2.35 2.46,6.05 6.09,7.46 2.76,1.1 4.5,-0.31 7.97,-3.3 0.32,-0.23 0.63,-0.63 0.71,-1.02 0,-0.16 0,-0.31 -0.16,-0.55 -0.31,-0.08 -0.47,-0.24 -0.63,-0.31 z"
                 id="path41"
                 inkscape:connector-curvature="0" />
              <path
                 d="m 149.53,7.23 a 9.6,9.6 0 0 0 -3.24,-4.72 3.87,3.87 0 0 0 -1.03,-0.62 c -0.08,0 -0.15,0 -0.31,-0.08 h -0.16 c -0.08,0 -0.08,0.08 -0.08,0.08 0,0.07 0.16,0.31 0.4,0.55 0.55,0.47 1.26,1.25 1.5,1.57 0.15,0.23 0.23,0.47 0,0.63 -0.08,0 -0.16,0.07 -0.32,0 -0.08,0 -0.16,-0.08 -0.32,-0.24 -0.7,-0.7 -2.52,-2.2 -3.63,-2.9 A 1.8,1.8 0 0 0 141,1.18 c 0,0 -0.24,0.08 -0.32,0.23 -0.07,0.16 0.08,0.4 0.08,0.4 0.48,0.39 2.77,2.35 3.16,2.83 0.4,0.39 0.4,0.62 0.24,0.78 -0.24,0.24 -0.55,0 -0.63,-0.08 -0.08,-0.08 -0.16,-0.08 -0.24,-0.23 a 41.36,41.36 0 0 0 -4.26,-2.75 c -0.64,-0.32 -0.87,-0.4 -1.5,-0.08 0,0 -0.4,0.23 -0.4,0.47 0,0.24 0.08,0.4 0.32,0.55 2.44,1.57 3,1.89 4.97,3.3 0.16,0.08 0.47,0.4 0.16,0.7 -0.08,0.09 -0.24,0.09 -0.4,0.09 -0.23,-0.08 -0.4,-0.16 -0.55,-0.24 a 22.54,22.54 0 0 0 -3.95,-1.89 c -0.7,-0.23 -1.1,0 -1.34,0.32 -0.23,0.23 -0.23,0.55 -0.23,0.78 0.07,0.24 0.31,0.4 0.47,0.55 1.34,0.79 2.45,1.26 3.79,2.05 0.4,0.23 0.47,0.31 0.95,0.55 0.47,0.31 1.18,0.78 1.42,1.33 0,0.08 0.08,0.32 0.08,0.4 0,0.23 -0.08,0.55 -0.48,0.78 -0.63,0.4 -1.81,0.32 -2.84,0.24 h -0.87 c -0.55,0 -0.87,0.15 -1.02,0.39 -0.16,0.24 -0.16,0.63 -0.16,0.79 v 0.23 c 0,0.08 0.08,0.24 0.08,0.24 0.23,0.31 0.7,0.39 1.26,0.47 0.95,0.08 1.97,0.08 3.16,0.08 2.76,0.08 5.84,-0.08 7.1,-1.73 1.19,-1.1 1.1,-3.7 0.48,-5.5 z"
                 id="path43"
                 inkscape:connector-curvature="0" />
            </g>
          </g>
        </g>
        <text
           xml:space="preserve"
           style="font-style:normal;font-variant:normal;font-weight:normal;font-stretch:normal;font-size:16.1817px;line-height:1.25;font-family:Gotham-Bold;-inkscape-font-specification:'Gotham-Bold, Normal';font-variant-ligatures:normal;font-variant-caps:normal;font-variant-numeric:normal;font-variant-east-asian:normal;fill:#000000;fill-opacity:1;stroke:none;stroke-width:0.21672"
           x="-28.5846"
           y="39.31889"
           id="text34359"
           transform="scale(0.9804111,1.0199803)"><tspan
             sodipodi:role="line"
             id="tspan34357"
             style="font-style:normal;font-variant:normal;font-weight:normal;font-stretch:normal;font-size:16.1817px;font-family:Gotham-Bold;-inkscape-font-specification:'Gotham-Bold, Normal';font-variant-ligatures:normal;font-variant-caps:normal;font-variant-numeric:normal;font-variant-east-asian:normal;stroke-width:0.21672"
             x="-28.5846"
             y="39.31889">Strategic Analysis</tspan></text>
      </g>
    </g>
  </g>
</svg>
